<svg xmlns="http://www.w3.org/2000/svg" width="1em" height="1em" fill="currentColor" viewBox="0 0 560 554.1">
        <g>
          <path d="M127.1,353.1h25.7c15.3,0,30.6,1.1,38.9,3.1c24.9,4.9,40.6,20.9,40.6,54.1c0,29.8-8.6,50.8-34.4,60.4
            c-13.5,5.1-31.3,5.3-49.3,5.3h-21.5L127.1,353.1L127.1,353.1z M161.9,453.6c8.4,0,17.3-0.7,23.7-3.3c14.7-4.9,20.2-17.8,20.2-38
            c0-14-4.4-25.8-13.7-31.3c-6.6-4.2-17.3-5.3-28.6-5.3h-10.7v77.9L161.9,453.6L161.9,453.6z"></path>
          <path d="M251.1,476V353h25.7v100.6h59V476H251.1z"></path>
          <path d="M348.2,476V353h25.7v100.6h59V476H348.2z"></path>
        </g>
        <g>
          <path d="M318.9,237.1c2-0.8,3.7-2.4,4.5-4.3c0.8-1.9,0.8-4.2-0.1-6.1c-2.5-5.7-1.2-12.5,3.2-16.9l11.7-11.7
            c2.9-2.9,6.7-4.5,10.7-4.5h2.7l3.1,1.2c2.4,1.1,4.5,1,6.3,0.2c2-0.8,3.5-2.4,4.3-4.4c2.2-5.6,7.3-9.1,13.1-9.5v-10.9
            c0-1.1-0.7-2.2-1.8-2.6c-11.5-4.5-20.8-13.6-25.6-25c-4.7-11.4-4.6-24.5,0.4-35.8c0.5-1,0.2-2.3-0.6-3.1L326.2,79
            c-1.4-1.4-2.4-0.9-3.1-0.6c-11.2,5-24.4,5.1-35.8,0.4s-20.6-14-25.1-25.6c-0.4-1-1.5-1.8-2.6-1.8h-34.9c-1.2,0-2.2,0.7-2.6,1.8
            c-4.5,11.5-13.6,20.9-25,25.6c-11.4,4.8-24.5,4.6-35.8-0.4c-0.7-0.3-1.7-0.8-3.1,0.6l-24.7,24.7c-0.8,0.8-1,2.1-0.6,3.1
            c5,11.3,5.1,24.4,0.4,35.8c-4.7,11.4-14.1,20.5-25.6,25c-1.1,0.4-1.8,1.4-1.8,2.6v34.9c0,1.2,0.7,2.2,1.8,2.6
            c11.5,4.5,20.8,13.6,25.6,25c4.7,11.4,4.6,24.5-0.4,35.8c-0.5,1-0.2,2.3,0.6,3.1l24.7,24.7c1.4,1.4,2.4,0.9,3.1,0.6
            c5.8-2.5,12-3.8,18.3-3.8c6,0,11.9,1.2,17.5,3.5c11.4,4.7,20.6,14.1,25.1,25.6c0.4,1,1.5,1.8,2.6,1.8h34.9c1.2,0,2.2-0.7,2.6-1.8
            c4.5-11.5,13.6-20.8,25.1-25.6c11.1-4.6,23.8-4.6,34.8,0c0.2-1.5,0.5-2.9,1.1-4.3c0.9-2,0.9-4.3,0.1-6.2c-0.8-1.9-2.4-3.5-4.4-4.2
            c-5.9-2.4-9.7-7.9-9.7-14.1v-16.5C309.4,245,313.1,239.4,318.9,237.1z M242.2,255.5c-37.4,0-67.8-30.4-67.8-67.8
            s30.4-67.8,67.8-67.8s67.8,30.5,67.8,67.8C310,225.1,279.6,255.5,242.2,255.5z"></path>
          <path d="M441.1,238.1c-2.2-5.4-2.2-11.6,0.2-17c0.2-0.5,0.1-1.1-0.3-1.5L429.3,208c-0.6-0.6-1.1-0.4-1.5-0.3
            c-5.3,2.3-11.6,2.4-16.9,0.2c-5.4-2.2-9.8-6.7-11.9-12.1c-0.2-0.5-0.7-0.8-1.2-0.8h-16.5c-0.5,0-1.1,0.3-1.2,0.8
            c-2.1,5.5-6.5,9.9-11.9,12.1c-5.4,2.3-11.6,2.2-17-0.2c-0.3-0.1-0.8-0.4-1.5,0.3L338,219.6c-0.4,0.4-0.5,1-0.3,1.5
            c2.4,5.4,2.4,11.5,0.2,17c-2.2,5.4-6.6,9.7-12.1,11.9c-0.5,0.2-0.9,0.7-0.9,1.3v16.5c0,0.5,0.4,1,0.9,1.2
            c5.5,2.1,9.9,6.4,12.1,11.9c2.2,5.4,2.2,11.6-0.2,17c-0.2,0.5-0.1,1.1,0.3,1.5l11.7,11.7c0.7,0.6,1.1,0.4,1.5,0.3
            c2.8-1.2,5.7-1.8,8.7-1.8c2.8,0,5.6,0.6,8.3,1.7c5.4,2.2,9.8,6.7,11.9,12.1c0.2,0.5,0.7,0.8,1.2,0.8h16.5c0.5,0,1-0.3,1.2-0.8
            c2.1-5.5,6.5-9.9,11.9-12.1s11.6-2.2,17,0.2c0.4,0.2,0.8,0.4,1.5-0.3l11.7-11.7c0.4-0.4,0.5-1,0.3-1.5c-2.4-5.4-2.4-11.6-0.2-17
            c2.2-5.4,6.7-9.7,12.1-11.9c0.5-0.2,0.8-0.7,0.8-1.2v-16.5c0-0.5-0.3-1.1-0.8-1.3C447.8,247.8,443.4,243.5,441.1,238.1z
             M389.5,291.6c-17.7,0-32.1-14.4-32.1-32.1s14.4-32.1,32.1-32.1s32.1,14.4,32.1,32.1C421.7,277.2,407.2,291.6,389.5,291.6z"></path>
        </g>
      </svg>