<svg xmlns="http://www.w3.org/2000/svg" width="1em" height="1em" fill="currentColor" viewBox="0 0 560 554.1">
        <g>
          <path d="M124.9,476V353h81.5v22.8h-55.9v25.7h49.9v22.6h-49.9v29.7h60.1V476H124.9z"></path>
          <path d="M216.5,476l41.7-64.4L219.6,353h30.8c15.7,22.9,22.2,33.3,26.6,40.4c4.4-7.1,10-17.1,25.7-40.2h28L291.9,412l42.8,64.1
            h-31.5c-19.8-30.2-25.1-37.5-29.3-44.2L245.6,476H216.5z"></path>
          <path d="M349.3,476V353h81.5v22.8H375v25.7h49.9v22.6H375v29.7h60.1V476H349.3z"></path>
        </g>
        <path d="M273.9,262.1c-4.2-3.6-6.8-8.9-7.1-14.5c-0.3-5.6,1.7-11.1,5.6-15.1c0.4-0.4,0.4-0.9,0.2-1.4l-4.6-9.7c0,0,0,0,0.1,0
          L266,217c-0.1-0.2-0.2-0.3-0.4-0.4c0,0,0,0-0.1-0.1s-0.1-0.1-0.2-0.1c-0.2-0.1-0.3-0.1-0.5-0.1c-0.1,0-0.1,0-0.1,0
          c-5.5,0.4-11.1-1.5-15.2-5.2c-4.1-3.7-6.6-9.1-6.8-14.6c0-0.5-0.4-1-0.9-1.2l-14.8-5.2c-0.8-0.3-1.1,0.1-1.4,0.4l0,0c0,0,0,0-0.1,0
          c-1.4,1.6-3,2.9-4.7,4c-0.1,0.1-0.2,0.1-0.4,0.2c-0.4,0.3-0.9,0.5-1.4,0.8c-2.5,1.2-5.2,1.9-8,2.1c-5.5,0.3-11.1-1.7-15.1-5.5
          c-0.4-0.3-0.9-0.4-1.4-0.2l-14.2,6.7c-0.5,0.2-0.8,0.7-0.7,1.2c0.4,5.6-1.5,11.1-5.2,15.2c-3.7,4.1-9.1,6.6-14.6,6.8
          c-0.3,0-0.8,0-1.1,0.8l-3.6,10.2c0,0,0,0-0.1,0l-1.6,4.6c-0.2,0.5,0,1,0.4,1.4c4.2,3.6,6.8,8.9,7.1,14.4c0.3,5.6-1.7,11.1-5.5,15.1
          c-0.3,0.4-0.4,0.9-0.2,1.4l6.7,14.2c0.4,0.8,0.9,0.7,1.2,0.7c5.5-0.4,11.1,1.5,15.2,5.2c4.1,3.7,6.6,9,6.8,14.6c0,0.5,0.4,1,0.8,1.2
          l14.8,5.2c0.1,0,0.2,0,0.3,0c0.7,0.2,1-0.1,1.2-0.4c0.9-1.1,2-2,3.1-2.9c0.1,0,0.1-0.1,0.1-0.1c0.5-0.4,1-0.7,1.5-1
          c0.4-0.2,0.8-0.5,1.2-0.7c0.2-0.1,0.4-0.2,0.6-0.3c2.5-1.2,5.1-1.9,7.9-2c5.5-0.3,11.1,1.7,15.1,5.5c0.3,0.2,0.6,0.6,1.4,0.2
          l14.2-6.7l0,0l0,0c0.5-0.2,0.8-0.7,0.7-1.2c-0.4-5.5,1.5-11.1,5.2-15.2c2.2-2.4,4.9-4.2,7.9-5.4c0.1-0.1,0.3-0.1,0.5-0.2
          c0.3-0.1,0.5-0.2,0.8-0.2c0.4-0.1,0.9-0.3,1.3-0.4c0.1,0,0.1,0,0.2,0c1.3-0.3,2.6-0.5,3.9-0.5c0.5,0,1-0.3,1.2-0.9l5.3-14.8
          C274.5,262.9,274.3,262.4,273.9,262.1z M242.7,260.5c-2.9,8-8.8,14.1-15.9,17.4c-0.8,0.4-1.7,0.7-2.5,1c0,0,0,0-0.1,0
          c-14.5,5.1-30.9-1.4-37.7-15.6c-5.8-12.3-2.7-26.5,6.7-35.3c0.1-0.1,0.1-0.1,0.2-0.2c0.4-0.4,0.9-0.8,1.4-1.2c0.3-0.3,0.7-0.6,1-0.8
          c0.1-0.1,0.3-0.2,0.4-0.3c7.8-5.6,18.2-7.4,27.9-3.9C240,227.2,248.3,244.7,242.7,260.5z"></path>
        <path d="M238.6,119.4c-4.8-2.8-8.4-7.4-9.8-12.8c-1.4-5.4-0.4-11.2,2.5-15.9c0.3-0.4,0.2-1-0.1-1.4l-6.4-8.6c0,0,0,0,0.1-0.1
          l-2.9-3.9c-0.1-0.2-0.3-0.2-0.4-0.3c0,0,0,0-0.1,0s-0.1-0.1-0.2-0.1c-0.2,0-0.4-0.1-0.5,0c-0.1,0-0.1,0-0.2,0
          c-5.4,1.5-11.2,0.7-15.9-2.2c-4.8-2.8-8.2-7.6-9.5-13c-0.1-0.5-0.5-0.9-1.1-1l-15.5-2.3c-0.9-0.1-1.1,0.3-1.3,0.6l0,0c0,0,0,0-0.1,0
          c-1,1.8-2.3,3.4-3.8,4.8c-0.1,0.1-0.2,0.2-0.3,0.3c-0.4,0.4-0.8,0.7-1.2,1c-2.2,1.7-4.7,2.9-7.4,3.6c-5.4,1.4-11.2,0.5-15.9-2.5
          c-0.4-0.3-1-0.2-1.4,0.1L134.6,75c-0.4,0.3-0.6,0.9-0.5,1.3c1.5,5.4,0.7,11.2-2.2,16c-2.8,4.8-7.6,8.3-13,9.5
          c-0.3,0.1-0.8,0.2-1,1.1l-1.6,10.7c0,0,0,0-0.1,0l-0.7,4.8c-0.1,0.5,0.2,1,0.6,1.3c4.8,2.8,8.4,7.4,9.7,12.8
          c1.4,5.4,0.5,11.2-2.5,15.9c-0.3,0.4-0.2,1,0.1,1.4l9.4,12.6c0.5,0.7,1,0.6,1.3,0.5c5.3-1.5,11.2-0.7,15.9,2.2
          c4.8,2.8,8.2,7.6,9.5,13c0.1,0.5,0.5,0.9,1,1l15.5,2.3c0.1,0,0.2,0,0.3,0c0.7,0,0.9-0.3,1.1-0.6c0.7-1.2,1.5-2.4,2.5-3.4l0.1-0.1
          c0.4-0.5,0.8-0.9,1.3-1.3c0.3-0.3,0.7-0.6,1.1-0.9c0.2-0.1,0.3-0.3,0.5-0.4c2.2-1.6,4.7-2.9,7.3-3.5c5.4-1.4,11.2-0.5,15.9,2.5
          c0.3,0.2,0.7,0.4,1.4-0.1l12.6-9.4l0,0l0,0c0.4-0.3,0.6-0.8,0.5-1.3c-1.5-5.4-0.7-11.2,2.2-16c1.7-2.8,4-5.1,6.7-6.8
          c0.1-0.1,0.3-0.2,0.4-0.3c0.2-0.1,0.5-0.3,0.7-0.4c0.4-0.2,0.8-0.4,1.2-0.6c0.1,0,0.1,0,0.2-0.1c1.2-0.5,2.5-1,3.8-1.3
          c0.5-0.1,0.9-0.5,1-1.1l2.3-15.5C239.3,120.2,239,119.7,238.6,119.4z M207.6,124c-1.2,8.4-5.8,15.6-12.2,20.2
          c-0.7,0.5-1.5,1-2.2,1.5c0,0,0,0-0.1,0c-13.2,7.9-30.6,4.6-40-8c-8.1-10.9-7.8-25.5-0.3-36c0.1-0.1,0.1-0.2,0.2-0.2
          c0.4-0.5,0.8-1,1.1-1.4c0.3-0.3,0.5-0.7,0.8-1c0.1-0.1,0.3-0.2,0.4-0.4c6.6-7,16.4-10.8,26.6-9.3C198.5,91.8,210,107.3,207.6,124z"></path>
        <path d="M489.5,217.8c-2.4,1.1-4.8,2.2-7.3,3c-0.1,0-0.1,0-0.2,0.1c-42.7,15.1-90.8-4.2-110.7-46c-17.1-36-8-77.8,19.6-103.8
          c0.2-0.2,0.4-0.4,0.6-0.5c1.3-1.2,2.7-2.3,4.1-3.5c1-0.8,2-1.7,3-2.4c0.4-0.3,0.9-0.6,1.3-0.9c4.1-3,8.5-5.5,13.1-7.8
          c-10.4-6.3-21.3-11.8-32.6-16.6c-12.8-5.4-25.9-9.7-39.3-13c-1.4,2-2.9,3.9-4.6,5.8c-10.9,12.1-26.6,19.4-43,19.9
          c-1,0.1-2.5,0.1-3.3,2.5l-10.7,30c0,0-0.1,0-0.2,0l-4.8,13.5c-0.5,1.4,0,3.1,1.1,4.1c12.4,10.7,20,26.1,20.8,42.4
          s-5.1,32.5-16.3,44.4c-1,1.1-1.3,2.8-0.7,4.1l19.8,41.6c1.1,2.3,2.5,2.2,3.6,2.1c16.1-1.2,32.6,4.4,44.7,15.4
          c12.2,10.9,19.4,26.6,19.9,42.9c0.1,1.5,1,2.9,2.5,3.4l43.4,15.4c0.3,0.1,0.5,0,0.8,0c1.9,0.5,2.8-0.5,3.5-1.2c2.7-3.2,5.7-6,9-8.5
          c0.1-0.1,0.3-0.2,0.4-0.3c1.4-1.1,2.9-2.1,4.4-3c1.1-0.7,2.4-1.3,3.5-1.9c0.5-0.3,1.1-0.6,1.7-0.9c7.2-3.5,15.1-5.6,23.2-6
          c16.3-0.9,32.6,5.1,44.4,16.3c0.7,0.7,1.8,1.7,4.1,0.6l28.8-13.7c0.4-6.1,0.6-12.1,0.6-18.3c0-29.7-5-58.6-14.8-86.2
          C514.2,202.5,502.6,211.7,489.5,217.8z"></path>
      </svg>